# xmcd CD database file
# Copyright (C) 1996 Ti Kan
#
# Track frame offsets:
#	183
#	12510
#	22310
#	34348
#	45150
#	56123
#	68165
#	77410
#	89870
#	98848
#	108948
#	119233
#	130683
#	142030
#	151378
#	162050
#	172823
#	182588
#	192098
#	203980
# Disc length: 2884 seconds
#
# Revision: 1
# Processed by: cddbd v1.4PL0 Copyright (c) Steve Scherf et al.
# Submitted via: CDCOPY 4.744
#
DISCID=140b4214
DTITLE=Sam Cooke - You Send Me
DYEAR=1993
DGENRE=R&B
TTITLE0=You Send Me
TTITLE1=Stealing Kisses
TTITLE2=Ol' Man River
TTITLE3=All My Life
TTITLE4=Steal Away
TTITLE5=Everybody Likes To Cha Cha Cha
TTITLE6=Only Sixteen
TTITLE7=Win Your Love For Me
TTITLE8=There I've Said It Again
TTITLE9=The Little Things You Do
TTITLE10=I Love You Most of All
TTITLE11=God Bless The Child
TTITLE12=I've Got A Right To Sing The Blues
TTITLE13=Good Morning Heartache
TTITLE14="Taint' Nobody's Bizness If I Do
TTITLE15=Comes Love
TTITLE16=Lover Come Back To Me
TTITLE17=Wonderful World
TTITLE18=Moonlight In Vermont
TTITLE19=When I Fall In Love
EXTD=Charly Records CDCD1093 c.93 Made in the EEC.
EXTT0=
EXTT1=
EXTT2=
EXTT3=
EXTT4=
EXTT5=
EXTT6=
EXTT7=
EXTT8=
EXTT9=
EXTT10=
EXTT11=
EXTT12=
EXTT13=
EXTT14=
EXTT15=
EXTT16=
EXTT17=
EXTT18=
EXTT19=
PLAYORDER=
